{
	"asset":{
		"generator":"Khronos glTF Blender I/O v3.5.30",
		"version":"2.0"
	},
	"extensionsUsed":[
		"KHR_materials_transmission",
		"KHR_materials_ior",
		"KHR_materials_emissive_strength"
	],
	"scene":0,
	"scenes":[
		{
			"name":"Scene",
			"nodes":[
				0,
				1
			]
		}
	],
	"nodes":[
		{
			"mesh":0,
			"name":"Mball.001",
			"scale":[
				0.14319893717765808,
				0.14319893717765808,
				0.14319893717765808
			],
			"translation":[
				-0.14781183004379272,
				-0.6641069650650024,
				0.1651754379272461
			]
		},
		{
			"camera":0,
			"name":"Camera",
			"translation":[
				0.024441659450531006,
				0.2591437101364136,
				4.365886211395264
			]
		}
	],
	"cameras":[
		{
			"name":"Camera",
			"perspective":{
				"aspectRatio":1.1574074074074074,
				"yfov":0.6031084593943543,
				"zfar":1000,
				"znear":0.10000000149011612
			},
			"type":"perspective"
		}
	],
	"materials":[
		{
			"doubleSided":true,
			"emissiveFactor":[
				0.029999999329447746,
				0.029999999329447746,
				0.029999999329447746
			],
			"extensions":{
				"KHR_materials_transmission":{
					"transmissionFactor":0.9272727370262146
				},
				"KHR_materials_ior":{
					"ior":1.4500000476837158
				}
			},
			"name":"Material.006",
			"pbrMetallicRoughness":{
				"baseColorFactor":[
					0.800000011920929,
					0.800000011920929,
					0.800000011920929,
					1
				],
				"metallicFactor":0,
				"roughnessFactor":0
			}
		},
		{
			"doubleSided":true,
			"emissiveFactor":[
				1,
				1,
				1
			],
			"extensions":{
				"KHR_materials_transmission":{
					"transmissionFactor":0.23636363446712494
				},
				"KHR_materials_emissive_strength":{
					"emissiveStrength":2.5999999046325684
				},
				"KHR_materials_ior":{
					"ior":1.4500000476837158
				}
			},
			"name":"dodecahdron",
			"pbrMetallicRoughness":{
				"baseColorFactor":[
					0.800000011920929,
					0.800000011920929,
					0.800000011920929,
					1
				],
				"metallicFactor":0,
				"roughnessFactor":0.5
			}
		}
	],
	"meshes":[
		{
			"name":"Mball.001",
			"primitives":[
				{
					"attributes":{
						"POSITION":0,
						"TEXCOORD_0":1,
						"NORMAL":2,
						"TANGENT":3
					},
					"indices":4,
					"material":0
				},
				{
					"attributes":{
						"POSITION":5,
						"TEXCOORD_0":6,
						"NORMAL":7,
						"TANGENT":8
					},
					"indices":9,
					"material":1
				}
			]
		}
	],
	"accessors":[
		{
			"bufferView":0,
			"componentType":5126,
			"count":4134,
			"max":[
				10.66287612915039,
				12.31620979309082,
				6.861326694488525
			],
			"min":[
				-6.003403663635254,
				-1.7685861587524414,
				-8.459901809692383
			],
			"type":"VEC3"
		},
		{
			"bufferView":1,
			"componentType":5126,
			"count":4134,
			"type":"VEC2"
		},
		{
			"bufferView":2,
			"componentType":5126,
			"count":4134,
			"type":"VEC3"
		},
		{
			"bufferView":3,
			"componentType":5126,
			"count":4134,
			"type":"VEC4"
		},
		{
			"bufferView":4,
			"componentType":5123,
			"count":24768,
			"type":"SCALAR"
		},
		{
			"bufferView":5,
			"componentType":5126,
			"count":996,
			"max":[
				5.650413990020752,
				10.661865234375,
				5.9875078201293945
			],
			"min":[
				-4.060707092285156,
				-0.15891456604003906,
				-8.966944694519043
			],
			"type":"VEC3"
		},
		{
			"bufferView":6,
			"componentType":5126,
			"count":996,
			"type":"VEC2"
		},
		{
			"bufferView":7,
			"componentType":5126,
			"count":996,
			"type":"VEC3"
		},
		{
			"bufferView":8,
			"componentType":5126,
			"count":996,
			"type":"VEC4"
		},
		{
			"bufferView":9,
			"componentType":5123,
			"count":4608,
			"type":"SCALAR"
		}
	],
	"bufferViews":[
		{
			"buffer":0,
			"byteLength":49608,
			"byteOffset":0,
			"target":34962
		},
		{
			"buffer":0,
			"byteLength":33072,
			"byteOffset":49608,
			"target":34962
		},
		{
			"buffer":0,
			"byteLength":49608,
			"byteOffset":82680,
			"target":34962
		},
		{
			"buffer":0,
			"byteLength":66144,
			"byteOffset":132288,
			"target":34962
		},
		{
			"buffer":0,
			"byteLength":49536,
			"byteOffset":198432,
			"target":34963
		},
		{
			"buffer":0,
			"byteLength":11952,
			"byteOffset":247968,
			"target":34962
		},
		{
			"buffer":0,
			"byteLength":7968,
			"byteOffset":259920,
			"target":34962
		},
		{
			"buffer":0,
			"byteLength":11952,
			"byteOffset":267888,
			"target":34962
		},
		{
			"buffer":0,
			"byteLength":15936,
			"byteOffset":279840,
			"target":34962
		},
		{
			"buffer":0,
			"byteLength":9216,
			"byteOffset":295776,
			"target":34963
		}
	],
	"buffers":[
		{
			"byteLength":304992,
			"uri":"data:application/octet-stream;base64,"
		}
	]
}
